<svg width="1919" height="53" viewBox="0 0 1919 53" fill="none" xmlns="http://www.w3.org/2000/svg">
<rect x="-1" width="1920" height="53" fill="#E7E4F8"/>
<path d="M384.544 29.04C384.592 29.0347 384.637 29.0453 384.68 29.072C384.723 29.0933 384.757 29.12 384.784 29.152L385.36 29.768C385.061 30.136 384.688 30.4187 384.24 30.616C383.792 30.8133 383.259 30.912 382.64 30.912C382.112 30.912 381.632 30.8187 381.2 30.632C380.768 30.4453 380.4 30.1893 380.096 29.864C379.792 29.5333 379.555 29.1413 379.384 28.688C379.219 28.2347 379.136 27.744 379.136 27.216C379.136 26.6773 379.229 26.1813 379.416 25.728C379.603 25.2747 379.859 24.8853 380.184 24.56C380.515 24.2347 380.901 23.9813 381.344 23.8C381.792 23.6187 382.277 23.528 382.8 23.528C383.387 23.528 383.885 23.624 384.296 23.816C384.712 24.008 385.069 24.256 385.368 24.56L384.92 25.192C384.893 25.2293 384.853 25.2667 384.8 25.304C384.752 25.3413 384.691 25.36 384.616 25.36C384.536 25.36 384.453 25.3333 384.368 25.28C384.288 25.2213 384.187 25.1573 384.064 25.088C383.941 25.0187 383.787 24.9573 383.6 24.904C383.413 24.8453 383.173 24.816 382.88 24.816C382.533 24.816 382.224 24.872 381.952 24.984C381.68 25.096 381.448 25.256 381.256 25.464C381.064 25.672 380.917 25.9253 380.816 26.224C380.715 26.5173 380.664 26.848 380.664 27.216C380.664 27.6 380.715 27.9413 380.816 28.24C380.923 28.5387 381.067 28.792 381.248 29C381.435 29.2027 381.653 29.3573 381.904 29.464C382.155 29.5653 382.429 29.616 382.728 29.616C383 29.616 383.224 29.5947 383.4 29.552C383.576 29.5093 383.728 29.4587 383.856 29.4C383.984 29.336 384.099 29.272 384.2 29.208C384.307 29.144 384.421 29.088 384.544 29.04ZM376.744 27.24C376.744 26.7013 376.813 26.1813 376.952 25.68C377.091 25.1787 377.288 24.7093 377.544 24.272C377.8 23.8347 378.107 23.4373 378.464 23.08C378.821 22.7227 379.216 22.416 379.648 22.16C380.085 21.904 380.555 21.7067 381.056 21.568C381.557 21.424 382.077 21.352 382.616 21.352C383.155 21.352 383.675 21.424 384.176 21.568C384.677 21.7067 385.147 21.904 385.584 22.16C386.021 22.416 386.419 22.7227 386.776 23.08C387.133 23.4373 387.44 23.8347 387.696 24.272C387.952 24.7093 388.149 25.1787 388.288 25.68C388.427 26.1813 388.496 26.7013 388.496 27.24C388.496 27.7787 388.424 28.2987 388.28 28.8C388.141 29.3013 387.944 29.7707 387.688 30.208C387.437 30.64 387.133 31.0347 386.776 31.392C386.419 31.7493 386.021 32.056 385.584 32.312C385.147 32.568 384.677 32.7653 384.176 32.904C383.675 33.0427 383.155 33.112 382.616 33.112C382.077 33.112 381.557 33.0427 381.056 32.904C380.555 32.7653 380.085 32.568 379.648 32.312C379.216 32.056 378.821 31.7493 378.464 31.392C378.107 31.0347 377.8 30.64 377.544 30.208C377.288 29.7707 377.091 29.3013 376.952 28.8C376.813 28.2987 376.744 27.7787 376.744 27.24ZM377.696 27.24C377.696 27.944 377.821 28.6027 378.072 29.216C378.328 29.824 378.677 30.3547 379.12 30.808C379.563 31.256 380.083 31.6107 380.68 31.872C381.283 32.1333 381.928 32.264 382.616 32.264C383.075 32.264 383.517 32.2053 383.944 32.088C384.371 31.9707 384.765 31.8053 385.128 31.592C385.496 31.3733 385.829 31.112 386.128 30.808C386.432 30.504 386.691 30.1653 386.904 29.792C387.117 29.4187 387.283 29.0187 387.4 28.592C387.517 28.16 387.576 27.7093 387.576 27.24C387.576 26.7707 387.517 26.32 387.4 25.888C387.283 25.4507 387.117 25.0453 386.904 24.672C386.691 24.2987 386.432 23.96 386.128 23.656C385.829 23.3467 385.496 23.0827 385.128 22.864C384.765 22.6453 384.371 22.4773 383.944 22.36C383.517 22.2373 383.075 22.176 382.616 22.176C381.928 22.176 381.283 22.3093 380.68 22.576C380.083 22.8373 379.563 23.1973 379.12 23.656C378.677 24.1093 378.328 24.6453 378.072 25.264C377.821 25.8773 377.696 26.536 377.696 27.24ZM405.746 21.48L402.162 33H400.474L397.77 24.728C397.738 24.6373 397.706 24.5387 397.674 24.432C397.648 24.3253 397.621 24.2107 397.594 24.088C397.568 24.2107 397.538 24.3253 397.506 24.432C397.48 24.5387 397.45 24.6373 397.418 24.728L394.69 33H393.002L389.418 21.48H390.986C391.146 21.48 391.28 21.52 391.386 21.6C391.498 21.6747 391.573 21.7787 391.61 21.912L393.77 29.296C393.813 29.456 393.853 29.6293 393.89 29.816C393.928 30.0027 393.965 30.1973 394.002 30.4C394.04 30.1973 394.08 30.0027 394.122 29.816C394.17 29.624 394.221 29.4507 394.274 29.296L396.746 21.912C396.784 21.8053 396.858 21.7067 396.97 21.616C397.082 21.5253 397.216 21.48 397.37 21.48H397.914C398.08 21.48 398.213 21.5227 398.314 21.608C398.416 21.688 398.493 21.7893 398.546 21.912L401.01 29.296C401.064 29.4507 401.112 29.6187 401.154 29.8C401.202 29.976 401.245 30.1627 401.282 30.36C401.32 30.1627 401.354 29.976 401.386 29.8C401.424 29.6187 401.464 29.4507 401.506 29.296L403.658 21.912C403.69 21.7947 403.762 21.6933 403.874 21.608C403.992 21.5227 404.128 21.48 404.282 21.48H405.746ZM411.4 28C411.4 27.712 411.357 27.4453 411.272 27.2C411.192 26.9493 411.072 26.7333 410.912 26.552C410.752 26.3653 410.552 26.2213 410.312 26.12C410.077 26.0133 409.805 25.96 409.496 25.96C408.872 25.96 408.381 26.1387 408.024 26.496C407.667 26.8533 407.44 27.3547 407.344 28H411.4ZM407.296 29.056C407.317 29.52 407.389 29.9227 407.512 30.264C407.635 30.6 407.797 30.88 408 31.104C408.208 31.328 408.453 31.496 408.736 31.608C409.024 31.7147 409.344 31.768 409.696 31.768C410.032 31.768 410.323 31.7307 410.568 31.656C410.813 31.576 411.027 31.4907 411.208 31.4C411.389 31.304 411.544 31.2187 411.672 31.144C411.8 31.064 411.917 31.024 412.024 31.024C412.163 31.024 412.269 31.0773 412.344 31.184L412.832 31.816C412.629 32.056 412.4 32.2587 412.144 32.424C411.888 32.5893 411.616 32.7253 411.328 32.832C411.04 32.9333 410.744 33.0053 410.44 33.048C410.136 33.096 409.84 33.12 409.552 33.12C408.987 33.12 408.461 33.0267 407.976 32.84C407.496 32.648 407.077 32.368 406.72 32C406.368 31.632 406.091 31.176 405.888 30.632C405.691 30.088 405.592 29.4613 405.592 28.752C405.592 28.1867 405.68 27.6587 405.856 27.168C406.037 26.6773 406.293 26.2507 406.624 25.888C406.96 25.5253 407.365 25.24 407.84 25.032C408.32 24.8187 408.861 24.712 409.464 24.712C409.965 24.712 410.429 24.7947 410.856 24.96C411.283 25.12 411.651 25.3573 411.96 25.672C412.269 25.9867 412.509 26.3733 412.68 26.832C412.856 27.2853 412.944 27.8027 412.944 28.384C412.944 28.6507 412.915 28.8293 412.856 28.92C412.797 29.0107 412.691 29.056 412.536 29.056H407.296ZM416.268 30.952C416.508 31.2613 416.769 31.48 417.052 31.608C417.34 31.7307 417.652 31.792 417.988 31.792C418.665 31.792 419.193 31.5467 419.572 31.056C419.951 30.5653 420.14 29.8053 420.14 28.776C420.14 27.8373 419.975 27.152 419.644 26.72C419.319 26.288 418.852 26.072 418.244 26.072C417.823 26.072 417.455 26.168 417.14 26.36C416.831 26.5467 416.54 26.816 416.268 27.168V30.952ZM416.268 25.92C416.604 25.552 416.98 25.2587 417.396 25.04C417.812 24.8213 418.287 24.712 418.82 24.712C419.295 24.712 419.721 24.8053 420.1 24.992C420.484 25.1733 420.809 25.4373 421.076 25.784C421.343 26.1307 421.548 26.552 421.692 27.048C421.836 27.5387 421.908 28.0933 421.908 28.712C421.908 29.3733 421.825 29.976 421.66 30.52C421.5 31.0587 421.268 31.5227 420.964 31.912C420.66 32.296 420.292 32.5947 419.86 32.808C419.428 33.016 418.945 33.12 418.412 33.12C418.151 33.12 417.913 33.0933 417.7 33.04C417.487 32.992 417.289 32.92 417.108 32.824C416.927 32.728 416.759 32.6133 416.604 32.48C416.455 32.3467 416.311 32.1947 416.172 32.024L416.1 32.656C416.073 32.7787 416.025 32.8667 415.956 32.92C415.887 32.9733 415.791 33 415.668 33H414.548V21.16H416.268V25.92ZM428.931 28C428.931 27.712 428.889 27.4453 428.803 27.2C428.723 26.9493 428.603 26.7333 428.443 26.552C428.283 26.3653 428.083 26.2213 427.843 26.12C427.609 26.0133 427.337 25.96 427.027 25.96C426.403 25.96 425.913 26.1387 425.555 26.496C425.198 26.8533 424.971 27.3547 424.875 28H428.931ZM424.827 29.056C424.849 29.52 424.921 29.9227 425.043 30.264C425.166 30.6 425.329 30.88 425.531 31.104C425.739 31.328 425.985 31.496 426.267 31.608C426.555 31.7147 426.875 31.768 427.227 31.768C427.563 31.768 427.854 31.7307 428.099 31.656C428.345 31.576 428.558 31.4907 428.739 31.4C428.921 31.304 429.075 31.2187 429.203 31.144C429.331 31.064 429.449 31.024 429.555 31.024C429.694 31.024 429.801 31.0773 429.875 31.184L430.363 31.816C430.161 32.056 429.931 32.2587 429.675 32.424C429.419 32.5893 429.147 32.7253 428.859 32.832C428.571 32.9333 428.275 33.0053 427.971 33.048C427.667 33.096 427.371 33.12 427.083 33.12C426.518 33.12 425.993 33.0267 425.507 32.84C425.027 32.648 424.609 32.368 424.251 32C423.899 31.632 423.622 31.176 423.419 30.632C423.222 30.088 423.123 29.4613 423.123 28.752C423.123 28.1867 423.211 27.6587 423.387 27.168C423.569 26.6773 423.825 26.2507 424.155 25.888C424.491 25.5253 424.897 25.24 425.371 25.032C425.851 24.8187 426.393 24.712 426.995 24.712C427.497 24.712 427.961 24.7947 428.387 24.96C428.814 25.12 429.182 25.3573 429.491 25.672C429.801 25.9867 430.041 26.3733 430.211 26.832C430.387 27.2853 430.475 27.8027 430.475 28.384C430.475 28.6507 430.446 28.8293 430.387 28.92C430.329 29.0107 430.222 29.056 430.067 29.056H424.827ZM437.847 26.44C437.794 26.5093 437.743 26.5627 437.695 26.6C437.647 26.6373 437.578 26.656 437.487 26.656C437.397 26.656 437.301 26.624 437.199 26.56C437.103 26.496 436.986 26.4267 436.847 26.352C436.714 26.272 436.551 26.2 436.359 26.136C436.167 26.072 435.927 26.04 435.639 26.04C435.266 26.04 434.938 26.1067 434.655 26.24C434.378 26.3733 434.143 26.5653 433.951 26.816C433.765 27.0613 433.623 27.3627 433.527 27.72C433.437 28.072 433.391 28.4693 433.391 28.912C433.391 29.3707 433.442 29.7787 433.543 30.136C433.645 30.4933 433.789 30.7947 433.975 31.04C434.167 31.2853 434.397 31.472 434.663 31.6C434.935 31.728 435.239 31.792 435.575 31.792C435.906 31.792 436.175 31.752 436.383 31.672C436.591 31.592 436.765 31.504 436.903 31.408C437.042 31.312 437.159 31.224 437.255 31.144C437.357 31.064 437.463 31.024 437.575 31.024C437.714 31.024 437.821 31.0773 437.895 31.184L438.383 31.816C438.186 32.056 437.967 32.2587 437.727 32.424C437.487 32.5893 437.234 32.7253 436.967 32.832C436.701 32.9333 436.423 33.0053 436.135 33.048C435.847 33.096 435.557 33.12 435.263 33.12C434.757 33.12 434.282 33.0267 433.839 32.84C433.402 32.648 433.018 32.3733 432.687 32.016C432.362 31.6533 432.103 31.2133 431.911 30.696C431.725 30.1733 431.631 29.5787 431.631 28.912C431.631 28.3093 431.717 27.752 431.887 27.24C432.058 26.7227 432.306 26.2773 432.631 25.904C432.962 25.5307 433.37 25.24 433.855 25.032C434.341 24.8187 434.901 24.712 435.535 24.712C436.127 24.712 436.647 24.808 437.095 25C437.549 25.192 437.951 25.464 438.303 25.816L437.847 26.44ZM447.007 24.84L442.511 35.32C442.452 35.4427 442.38 35.5387 442.295 35.608C442.215 35.6773 442.089 35.712 441.919 35.712H440.647L442.151 32.448L438.823 24.84H440.319C440.463 24.84 440.572 24.8747 440.647 24.944C440.727 25.008 440.785 25.0853 440.823 25.176L442.767 29.808C442.815 29.9413 442.857 30.0747 442.895 30.208C442.937 30.336 442.977 30.4693 443.015 30.608C443.057 30.4693 443.1 30.3333 443.143 30.2C443.185 30.0667 443.233 29.9333 443.287 29.8L445.151 25.176C445.188 25.08 445.249 25 445.335 24.936C445.425 24.872 445.524 24.84 445.631 24.84H447.007ZM451.624 27.456H455.68V28.912H451.624V27.456ZM467.542 28.68L465.958 24.472C465.83 24.1467 465.699 23.7333 465.566 23.232C465.507 23.4827 465.443 23.7147 465.374 23.928C465.305 24.136 465.241 24.32 465.182 24.48L463.598 28.68H467.542ZM471.086 33H469.638C469.473 33 469.339 32.96 469.238 32.88C469.137 32.7947 469.059 32.6907 469.006 32.568L468.046 30.024H463.086L462.126 32.568C462.083 32.6747 462.009 32.7733 461.902 32.864C461.795 32.9547 461.662 33 461.502 33H460.054L464.622 21.48H466.518L471.086 33ZM473.831 21.16V33H472.111V21.16H473.831ZM477.706 21.16V33H475.986V21.16H477.706ZM487.478 27C487.904 27 488.278 26.9493 488.598 26.848C488.918 26.7413 489.184 26.5947 489.398 26.408C489.611 26.2213 489.771 26 489.878 25.744C489.984 25.4827 490.038 25.1947 490.038 24.88C490.038 24.2507 489.83 23.7707 489.414 23.44C488.998 23.1093 488.368 22.944 487.526 22.944H486.006V27H487.478ZM492.902 33H491.23C490.899 33 490.659 32.872 490.51 32.616L487.822 28.736C487.731 28.6027 487.632 28.5067 487.526 28.448C487.419 28.3893 487.259 28.36 487.046 28.36H486.006V33H484.134V21.48H487.526C488.283 21.48 488.934 21.5573 489.478 21.712C490.027 21.8667 490.478 22.088 490.83 22.376C491.182 22.6587 491.44 23 491.606 23.4C491.776 23.8 491.862 24.2453 491.862 24.736C491.862 25.136 491.8 25.5093 491.678 25.856C491.56 26.2027 491.387 26.5173 491.158 26.8C490.934 27.0827 490.656 27.328 490.326 27.536C489.995 27.744 489.619 27.9067 489.198 28.024C489.427 28.1627 489.624 28.3573 489.79 28.608L492.902 33ZM495.653 24.84V33H493.933V24.84H495.653ZM495.941 22.376C495.941 22.5307 495.909 22.6773 495.845 22.816C495.786 22.9547 495.703 23.0773 495.597 23.184C495.49 23.2853 495.365 23.368 495.221 23.432C495.082 23.4907 494.933 23.52 494.773 23.52C494.618 23.52 494.471 23.4907 494.333 23.432C494.199 23.368 494.082 23.2853 493.981 23.184C493.879 23.0773 493.797 22.9547 493.733 22.816C493.674 22.6773 493.645 22.5307 493.645 22.376C493.645 22.216 493.674 22.0667 493.733 21.928C493.797 21.7893 493.879 21.6693 493.981 21.568C494.082 21.4613 494.199 21.3787 494.333 21.32C494.471 21.256 494.618 21.224 494.773 21.224C494.933 21.224 495.082 21.256 495.221 21.32C495.365 21.3787 495.49 21.4613 495.597 21.568C495.703 21.6693 495.786 21.7893 495.845 21.928C495.909 22.0667 495.941 22.216 495.941 22.376ZM500.726 28.848C501.259 28.848 501.659 28.712 501.926 28.44C502.192 28.168 502.326 27.8133 502.326 27.376C502.326 26.928 502.192 26.5733 501.926 26.312C501.659 26.0507 501.259 25.92 500.726 25.92C500.198 25.92 499.798 26.0507 499.526 26.312C499.259 26.5733 499.126 26.928 499.126 27.376C499.126 27.5893 499.16 27.7867 499.23 27.968C499.299 28.1493 499.4 28.3067 499.534 28.44C499.667 28.568 499.832 28.6693 500.03 28.744C500.232 28.8133 500.464 28.848 500.726 28.848ZM503.118 33.4C503.118 33.2187 503.064 33.0747 502.958 32.968C502.856 32.856 502.718 32.7707 502.542 32.712C502.366 32.648 502.16 32.6027 501.926 32.576C501.691 32.544 501.44 32.5227 501.174 32.512C500.912 32.496 500.643 32.4827 500.366 32.472C500.094 32.456 499.83 32.4293 499.574 32.392C499.318 32.5253 499.107 32.6853 498.942 32.872C498.782 33.0587 498.702 33.2747 498.702 33.52C498.702 33.68 498.742 33.8293 498.822 33.968C498.907 34.1067 499.035 34.2267 499.206 34.328C499.382 34.4293 499.603 34.5093 499.87 34.568C500.142 34.6267 500.467 34.656 500.846 34.656C501.603 34.656 502.171 34.5387 502.55 34.304C502.928 34.0693 503.118 33.768 503.118 33.4ZM504.846 25.136V25.776C504.846 25.9893 504.718 26.12 504.462 26.168L503.646 26.304C503.784 26.6133 503.854 26.9573 503.854 27.336C503.854 27.736 503.774 28.0987 503.614 28.424C503.459 28.7493 503.243 29.0267 502.966 29.256C502.688 29.4853 502.358 29.6613 501.974 29.784C501.59 29.9067 501.174 29.968 500.726 29.968C500.555 29.968 500.387 29.96 500.222 29.944C500.062 29.9227 499.904 29.896 499.75 29.864C499.595 29.9547 499.48 30.0507 499.406 30.152C499.331 30.2533 499.294 30.3573 499.294 30.464C499.294 30.64 499.371 30.7707 499.526 30.856C499.68 30.9413 499.883 31.0027 500.134 31.04C500.39 31.0773 500.68 31.1013 501.006 31.112C501.331 31.1227 501.662 31.1413 501.998 31.168C502.334 31.1947 502.664 31.24 502.99 31.304C503.315 31.3627 503.603 31.464 503.854 31.608C504.11 31.7467 504.315 31.936 504.47 32.176C504.624 32.416 504.702 32.728 504.702 33.112C504.702 33.464 504.614 33.808 504.438 34.144C504.262 34.48 504.006 34.7787 503.67 35.04C503.339 35.3013 502.934 35.5093 502.454 35.664C501.974 35.824 501.427 35.904 500.814 35.904C500.206 35.904 499.675 35.8453 499.222 35.728C498.774 35.6107 498.398 35.4507 498.094 35.248C497.795 35.0507 497.571 34.8213 497.422 34.56C497.278 34.2987 497.206 34.0267 497.206 33.744C497.206 33.36 497.326 33.032 497.566 32.76C497.811 32.488 498.142 32.2747 498.558 32.12C498.334 32.0133 498.152 31.8667 498.014 31.68C497.88 31.4933 497.814 31.248 497.814 30.944C497.814 30.704 497.902 30.4533 498.078 30.192C498.254 29.9307 498.518 29.7093 498.87 29.528C498.464 29.304 498.144 29.008 497.91 28.64C497.675 28.2667 497.558 27.832 497.558 27.336C497.558 26.9307 497.635 26.5653 497.79 26.24C497.95 25.9147 498.171 25.6373 498.454 25.408C498.736 25.1787 499.07 25.0027 499.454 24.88C499.843 24.7573 500.267 24.696 500.726 24.696C501.43 24.696 502.043 24.8427 502.566 25.136H504.846ZM507.924 25.808C508.26 25.4773 508.628 25.2133 509.028 25.016C509.428 24.8133 509.895 24.712 510.428 24.712C510.876 24.712 511.268 24.7867 511.604 24.936C511.946 25.0853 512.231 25.296 512.46 25.568C512.695 25.84 512.871 26.168 512.988 26.552C513.106 26.9307 513.164 27.3493 513.164 27.808V33H511.452V27.808C511.452 27.2587 511.324 26.832 511.068 26.528C510.818 26.224 510.434 26.072 509.916 26.072C509.532 26.072 509.175 26.16 508.844 26.336C508.519 26.512 508.212 26.752 507.924 27.056V33H506.204V21.16H507.924V25.808ZM517.68 33.128C517.002 33.128 516.48 32.9387 516.112 32.56C515.749 32.176 515.568 31.6373 515.568 30.944V26.192H514.672C514.576 26.192 514.493 26.1627 514.424 26.104C514.354 26.04 514.32 25.9467 514.32 25.824V25.128L515.64 24.936L516.016 22.576C516.042 22.4853 516.088 22.4133 516.152 22.36C516.216 22.3013 516.301 22.272 516.408 22.272H517.288V24.952H519.552V26.192H517.288V30.824C517.288 31.1173 517.36 31.3413 517.504 31.496C517.648 31.6507 517.84 31.728 518.08 31.728C518.213 31.728 518.328 31.712 518.424 31.68C518.52 31.6427 518.602 31.6053 518.672 31.568C518.741 31.5253 518.8 31.488 518.848 31.456C518.901 31.4187 518.952 31.4 519 31.4C519.096 31.4 519.173 31.4533 519.232 31.56L519.744 32.4C519.477 32.6347 519.162 32.816 518.8 32.944C518.437 33.0667 518.064 33.128 517.68 33.128ZM525.779 26.32C525.737 26.3947 525.689 26.448 525.635 26.48C525.582 26.512 525.515 26.528 525.435 26.528C525.345 26.528 525.246 26.5013 525.139 26.448C525.033 26.3893 524.907 26.3253 524.763 26.256C524.619 26.1867 524.449 26.1253 524.251 26.072C524.059 26.0133 523.833 25.984 523.571 25.984C523.358 25.984 523.163 26.0107 522.987 26.064C522.817 26.112 522.67 26.184 522.547 26.28C522.43 26.3707 522.339 26.48 522.275 26.608C522.211 26.7307 522.179 26.864 522.179 27.008C522.179 27.2 522.238 27.36 522.355 27.488C522.473 27.616 522.627 27.728 522.819 27.824C523.011 27.9147 523.23 27.9973 523.475 28.072C523.721 28.1467 523.971 28.2267 524.227 28.312C524.483 28.3973 524.734 28.496 524.979 28.608C525.225 28.72 525.443 28.8587 525.635 29.024C525.827 29.184 525.982 29.3813 526.099 29.616C526.217 29.8453 526.275 30.1253 526.275 30.456C526.275 30.84 526.206 31.1947 526.067 31.52C525.929 31.8453 525.726 32.128 525.459 32.368C525.193 32.608 524.859 32.7947 524.459 32.928C524.065 33.0613 523.611 33.128 523.099 33.128C522.817 33.128 522.542 33.1013 522.275 33.048C522.014 33 521.763 32.9333 521.523 32.848C521.289 32.7573 521.067 32.6507 520.859 32.528C520.657 32.4053 520.475 32.272 520.315 32.128L520.715 31.472C520.763 31.392 520.822 31.3307 520.891 31.288C520.966 31.24 521.057 31.216 521.163 31.216C521.275 31.216 521.385 31.2533 521.491 31.328C521.603 31.3973 521.731 31.4747 521.875 31.56C522.025 31.6453 522.203 31.7253 522.411 31.8C522.619 31.8693 522.878 31.904 523.187 31.904C523.443 31.904 523.665 31.8747 523.851 31.816C524.038 31.752 524.193 31.6667 524.315 31.56C524.438 31.4533 524.529 31.3333 524.587 31.2C524.646 31.0613 524.675 30.9147 524.675 30.76C524.675 30.552 524.617 30.3813 524.499 30.248C524.382 30.1147 524.225 30 524.027 29.904C523.835 29.808 523.614 29.7227 523.363 29.648C523.118 29.5733 522.867 29.4933 522.611 29.408C522.355 29.3227 522.102 29.224 521.851 29.112C521.606 29 521.385 28.8587 521.187 28.688C520.995 28.512 520.841 28.3013 520.723 28.056C520.606 27.8053 520.547 27.5013 520.547 27.144C520.547 26.8187 520.611 26.5093 520.739 26.216C520.873 25.9227 521.065 25.664 521.315 25.44C521.571 25.216 521.883 25.04 522.251 24.912C522.625 24.7787 523.054 24.712 523.539 24.712C524.089 24.712 524.587 24.8 525.035 24.976C525.483 25.152 525.859 25.392 526.163 25.696L525.779 26.32ZM535.54 27C535.967 27 536.34 26.9493 536.66 26.848C536.98 26.7413 537.247 26.5947 537.46 26.408C537.673 26.2213 537.833 26 537.94 25.744C538.047 25.4827 538.1 25.1947 538.1 24.88C538.1 24.2507 537.892 23.7707 537.476 23.44C537.06 23.1093 536.431 22.944 535.588 22.944H534.068V27H535.54ZM540.964 33H539.292C538.961 33 538.721 32.872 538.572 32.616L535.884 28.736C535.793 28.6027 535.695 28.5067 535.588 28.448C535.481 28.3893 535.321 28.36 535.108 28.36H534.068V33H532.196V21.48H535.588C536.345 21.48 536.996 21.5573 537.54 21.712C538.089 21.8667 538.54 22.088 538.892 22.376C539.244 22.6587 539.503 23 539.668 23.4C539.839 23.8 539.924 24.2453 539.924 24.736C539.924 25.136 539.863 25.5093 539.74 25.856C539.623 26.2027 539.449 26.5173 539.22 26.8C538.996 27.0827 538.719 27.328 538.388 27.536C538.057 27.744 537.681 27.9067 537.26 28.024C537.489 28.1627 537.687 28.3573 537.852 28.608L540.964 33ZM546.853 28C546.853 27.712 546.81 27.4453 546.725 27.2C546.645 26.9493 546.525 26.7333 546.365 26.552C546.205 26.3653 546.005 26.2213 545.765 26.12C545.53 26.0133 545.258 25.96 544.949 25.96C544.325 25.96 543.834 26.1387 543.477 26.496C543.12 26.8533 542.893 27.3547 542.797 28H546.853ZM542.749 29.056C542.77 29.52 542.842 29.9227 542.965 30.264C543.088 30.6 543.25 30.88 543.453 31.104C543.661 31.328 543.906 31.496 544.189 31.608C544.477 31.7147 544.797 31.768 545.149 31.768C545.485 31.768 545.776 31.7307 546.021 31.656C546.266 31.576 546.48 31.4907 546.661 31.4C546.842 31.304 546.997 31.2187 547.125 31.144C547.253 31.064 547.37 31.024 547.477 31.024C547.616 31.024 547.722 31.0773 547.797 31.184L548.285 31.816C548.082 32.056 547.853 32.2587 547.597 32.424C547.341 32.5893 547.069 32.7253 546.781 32.832C546.493 32.9333 546.197 33.0053 545.893 33.048C545.589 33.096 545.293 33.12 545.005 33.12C544.44 33.12 543.914 33.0267 543.429 32.84C542.949 32.648 542.53 32.368 542.173 32C541.821 31.632 541.544 31.176 541.341 30.632C541.144 30.088 541.045 29.4613 541.045 28.752C541.045 28.1867 541.133 27.6587 541.309 27.168C541.49 26.6773 541.746 26.2507 542.077 25.888C542.413 25.5253 542.818 25.24 543.293 25.032C543.773 24.8187 544.314 24.712 544.917 24.712C545.418 24.712 545.882 24.7947 546.309 24.96C546.736 25.12 547.104 25.3573 547.413 25.672C547.722 25.9867 547.962 26.3733 548.133 26.832C548.309 27.2853 548.397 27.8027 548.397 28.384C548.397 28.6507 548.368 28.8293 548.309 28.92C548.25 29.0107 548.144 29.056 547.989 29.056H542.749ZM554.873 26.32C554.83 26.3947 554.782 26.448 554.729 26.48C554.676 26.512 554.609 26.528 554.529 26.528C554.438 26.528 554.34 26.5013 554.233 26.448C554.126 26.3893 554.001 26.3253 553.857 26.256C553.713 26.1867 553.542 26.1253 553.345 26.072C553.153 26.0133 552.926 25.984 552.665 25.984C552.452 25.984 552.257 26.0107 552.081 26.064C551.91 26.112 551.764 26.184 551.641 26.28C551.524 26.3707 551.433 26.48 551.369 26.608C551.305 26.7307 551.273 26.864 551.273 27.008C551.273 27.2 551.332 27.36 551.449 27.488C551.566 27.616 551.721 27.728 551.913 27.824C552.105 27.9147 552.324 27.9973 552.569 28.072C552.814 28.1467 553.065 28.2267 553.321 28.312C553.577 28.3973 553.828 28.496 554.073 28.608C554.318 28.72 554.537 28.8587 554.729 29.024C554.921 29.184 555.076 29.3813 555.193 29.616C555.31 29.8453 555.369 30.1253 555.369 30.456C555.369 30.84 555.3 31.1947 555.161 31.52C555.022 31.8453 554.82 32.128 554.553 32.368C554.286 32.608 553.953 32.7947 553.553 32.928C553.158 33.0613 552.705 33.128 552.193 33.128C551.91 33.128 551.636 33.1013 551.369 33.048C551.108 33 550.857 32.9333 550.617 32.848C550.382 32.7573 550.161 32.6507 549.953 32.528C549.75 32.4053 549.569 32.272 549.409 32.128L549.809 31.472C549.857 31.392 549.916 31.3307 549.985 31.288C550.06 31.24 550.15 31.216 550.257 31.216C550.369 31.216 550.478 31.2533 550.585 31.328C550.697 31.3973 550.825 31.4747 550.969 31.56C551.118 31.6453 551.297 31.7253 551.505 31.8C551.713 31.8693 551.972 31.904 552.281 31.904C552.537 31.904 552.758 31.8747 552.945 31.816C553.132 31.752 553.286 31.6667 553.409 31.56C553.532 31.4533 553.622 31.3333 553.681 31.2C553.74 31.0613 553.769 30.9147 553.769 30.76C553.769 30.552 553.71 30.3813 553.593 30.248C553.476 30.1147 553.318 30 553.121 29.904C552.929 29.808 552.708 29.7227 552.457 29.648C552.212 29.5733 551.961 29.4933 551.705 29.408C551.449 29.3227 551.196 29.224 550.945 29.112C550.7 29 550.478 28.8587 550.281 28.688C550.089 28.512 549.934 28.3013 549.817 28.056C549.7 27.8053 549.641 27.5013 549.641 27.144C549.641 26.8187 549.705 26.5093 549.833 26.216C549.966 25.9227 550.158 25.664 550.409 25.44C550.665 25.216 550.977 25.04 551.345 24.912C551.718 24.7787 552.148 24.712 552.633 24.712C553.182 24.712 553.681 24.8 554.129 24.976C554.577 25.152 554.953 25.392 555.257 25.696L554.873 26.32ZM562.338 28C562.338 27.712 562.295 27.4453 562.21 27.2C562.13 26.9493 562.01 26.7333 561.85 26.552C561.69 26.3653 561.49 26.2213 561.25 26.12C561.015 26.0133 560.743 25.96 560.434 25.96C559.81 25.96 559.319 26.1387 558.962 26.496C558.604 26.8533 558.378 27.3547 558.282 28H562.338ZM558.234 29.056C558.255 29.52 558.327 29.9227 558.45 30.264C558.572 30.6 558.735 30.88 558.938 31.104C559.146 31.328 559.391 31.496 559.674 31.608C559.962 31.7147 560.282 31.768 560.634 31.768C560.97 31.768 561.26 31.7307 561.506 31.656C561.751 31.576 561.964 31.4907 562.146 31.4C562.327 31.304 562.482 31.2187 562.61 31.144C562.738 31.064 562.855 31.024 562.962 31.024C563.1 31.024 563.207 31.0773 563.282 31.184L563.77 31.816C563.567 32.056 563.338 32.2587 563.082 32.424C562.826 32.5893 562.554 32.7253 562.266 32.832C561.978 32.9333 561.682 33.0053 561.378 33.048C561.074 33.096 560.778 33.12 560.49 33.12C559.924 33.12 559.399 33.0267 558.914 32.84C558.434 32.648 558.015 32.368 557.658 32C557.306 31.632 557.028 31.176 556.826 30.632C556.628 30.088 556.53 29.4613 556.53 28.752C556.53 28.1867 556.618 27.6587 556.794 27.168C556.975 26.6773 557.231 26.2507 557.562 25.888C557.898 25.5253 558.303 25.24 558.778 25.032C559.258 24.8187 559.799 24.712 560.402 24.712C560.903 24.712 561.367 24.7947 561.794 24.96C562.22 25.12 562.588 25.3573 562.898 25.672C563.207 25.9867 563.447 26.3733 563.618 26.832C563.794 27.2853 563.882 27.8027 563.882 28.384C563.882 28.6507 563.852 28.8293 563.794 28.92C563.735 29.0107 563.628 29.056 563.474 29.056H558.234ZM567.11 26.352C567.366 25.8347 567.675 25.4293 568.038 25.136C568.4 24.8373 568.835 24.688 569.342 24.688C569.518 24.688 569.683 24.7093 569.838 24.752C569.992 24.7893 570.131 24.848 570.254 24.928L570.134 26.224C570.112 26.3147 570.078 26.3787 570.03 26.416C569.987 26.448 569.928 26.464 569.854 26.464C569.774 26.464 569.659 26.4507 569.51 26.424C569.36 26.392 569.203 26.376 569.038 26.376C568.798 26.376 568.584 26.4107 568.398 26.48C568.216 26.5493 568.051 26.6507 567.902 26.784C567.758 26.9173 567.63 27.08 567.518 27.272C567.406 27.464 567.302 27.6827 567.206 27.928V33H565.486V24.84H566.486C566.667 24.84 566.792 24.8747 566.862 24.944C566.931 25.008 566.979 25.1227 567.006 25.288L567.11 26.352ZM578.576 24.84L575.296 33H573.744L570.464 24.84H571.88C572.013 24.84 572.122 24.8747 572.208 24.944C572.298 25.008 572.357 25.0853 572.384 25.176L574.192 29.928C574.266 30.152 574.333 30.3733 574.392 30.592C574.45 30.8107 574.501 31.032 574.544 31.256C574.586 31.032 574.637 30.8133 574.696 30.6C574.76 30.3813 574.829 30.1573 574.904 29.928L576.744 25.176C576.776 25.08 576.834 25 576.92 24.936C577.005 24.872 577.109 24.84 577.232 24.84H578.576ZM584.869 28C584.869 27.712 584.826 27.4453 584.741 27.2C584.661 26.9493 584.541 26.7333 584.381 26.552C584.221 26.3653 584.021 26.2213 583.781 26.12C583.546 26.0133 583.274 25.96 582.965 25.96C582.341 25.96 581.85 26.1387 581.493 26.496C581.135 26.8533 580.909 27.3547 580.813 28H584.869ZM580.765 29.056C580.786 29.52 580.858 29.9227 580.981 30.264C581.103 30.6 581.266 30.88 581.469 31.104C581.677 31.328 581.922 31.496 582.205 31.608C582.493 31.7147 582.813 31.768 583.165 31.768C583.501 31.768 583.791 31.7307 584.037 31.656C584.282 31.576 584.495 31.4907 584.677 31.4C584.858 31.304 585.013 31.2187 585.141 31.144C585.269 31.064 585.386 31.024 585.493 31.024C585.631 31.024 585.738 31.0773 585.813 31.184L586.301 31.816C586.098 32.056 585.869 32.2587 585.613 32.424C585.357 32.5893 585.085 32.7253 584.797 32.832C584.509 32.9333 584.213 33.0053 583.909 33.048C583.605 33.096 583.309 33.12 583.021 33.12C582.455 33.12 581.93 33.0267 581.445 32.84C580.965 32.648 580.546 32.368 580.189 32C579.837 31.632 579.559 31.176 579.357 30.632C579.159 30.088 579.061 29.4613 579.061 28.752C579.061 28.1867 579.149 27.6587 579.325 27.168C579.506 26.6773 579.762 26.2507 580.093 25.888C580.429 25.5253 580.834 25.24 581.309 25.032C581.789 24.8187 582.33 24.712 582.933 24.712C583.434 24.712 583.898 24.7947 584.325 24.96C584.751 25.12 585.119 25.3573 585.429 25.672C585.738 25.9867 585.978 26.3733 586.149 26.832C586.325 27.2853 586.413 27.8027 586.413 28.384C586.413 28.6507 586.383 28.8293 586.325 28.92C586.266 29.0107 586.159 29.056 586.005 29.056H580.765ZM593.225 26.848C592.985 26.5387 592.721 26.3227 592.433 26.2C592.145 26.0773 591.833 26.016 591.497 26.016C590.825 26.016 590.299 26.264 589.921 26.76C589.542 27.2507 589.353 27.9787 589.353 28.944C589.353 29.4453 589.395 29.8747 589.481 30.232C589.566 30.584 589.689 30.872 589.849 31.096C590.009 31.32 590.203 31.4827 590.433 31.584C590.662 31.6853 590.921 31.736 591.209 31.736C591.646 31.736 592.022 31.6427 592.337 31.456C592.657 31.264 592.953 30.9947 593.225 30.648V26.848ZM594.945 21.16V33H593.905C593.675 33 593.529 32.8907 593.465 32.672L593.313 31.784C592.971 32.184 592.582 32.5067 592.145 32.752C591.713 32.9973 591.209 33.12 590.633 33.12C590.174 33.12 589.758 33.0293 589.385 32.848C589.011 32.6613 588.691 32.392 588.425 32.04C588.158 31.688 587.95 31.2533 587.801 30.736C587.657 30.2133 587.585 29.616 587.585 28.944C587.585 28.336 587.665 27.7733 587.825 27.256C587.99 26.7387 588.225 26.2907 588.529 25.912C588.833 25.528 589.201 25.2293 589.633 25.016C590.07 24.7973 590.558 24.688 591.097 24.688C591.577 24.688 591.985 24.7653 592.321 24.92C592.657 25.0693 592.958 25.28 593.225 25.552V21.16H594.945Z" fill="#9DA0AE"/>
<circle cx="1265.71" cy="26.7087" r="9.70874" fill="#151875"/>
<path d="M1266.82 30.9791V26.7352H1268.25L1268.46 25.0736H1266.82V24.0152C1266.82 23.5357 1266.95 23.2074 1267.64 23.2074H1268.51V21.726C1268.09 21.6805 1267.66 21.6586 1267.24 21.6602C1265.97 21.6602 1265.1 22.4328 1265.1 23.8511V25.0705H1263.68V26.7321H1265.11V30.9791H1266.82Z" fill="white"/>
<circle cx="1326.29" cy="26.7087" r="9.70874" fill="#151875"/>
<path d="M1331.93 22.663C1331.5 22.8546 1331.04 22.9841 1330.55 23.0426C1331.05 22.7411 1331.43 22.2666 1331.61 21.7077C1331.13 21.9888 1330.62 22.1868 1330.08 22.2928C1329.71 21.9049 1329.23 21.6478 1328.71 21.5614C1328.18 21.475 1327.64 21.5641 1327.18 21.815C1326.71 22.0659 1326.33 22.4644 1326.12 22.9487C1325.9 23.433 1325.84 23.976 1325.97 24.4934C1325.01 24.4453 1324.07 24.196 1323.21 23.7617C1322.35 23.3275 1321.6 22.718 1320.99 21.9728C1320.79 22.3301 1320.67 22.7443 1320.67 23.1855C1320.67 23.5826 1320.76 23.9737 1320.95 24.324C1321.14 24.6743 1321.41 24.9729 1321.74 25.1935C1321.36 25.1813 1320.98 25.0778 1320.65 24.8916V24.9227C1320.65 25.4797 1320.84 26.0196 1321.19 26.4507C1321.55 26.8819 1322.04 27.1777 1322.58 27.288C1322.23 27.3842 1321.85 27.3983 1321.49 27.3294C1321.65 27.8087 1321.95 28.2278 1322.35 28.5281C1322.76 28.8284 1323.24 28.9948 1323.75 29.004C1322.89 29.6748 1321.84 30.0386 1320.75 30.037C1320.56 30.0371 1320.37 30.0258 1320.17 30.0034C1321.28 30.7123 1322.56 31.0886 1323.87 31.0871C1328.31 31.0871 1330.74 27.4118 1330.74 24.2242C1330.74 24.1206 1330.73 24.016 1330.73 23.9125C1331.2 23.5712 1331.61 23.1487 1331.93 22.6646L1331.93 22.663Z" fill="white"/>
<circle cx="1296" cy="26.7087" r="9.70874" fill="#151875"/>
<path d="M1300.24 24.4072C1300.24 24.015 1300.17 23.6267 1300.03 23.2597C1299.91 22.9501 1299.72 22.669 1299.49 22.4343C1299.25 22.1995 1298.97 22.0163 1298.66 21.8963C1298.3 21.7603 1297.92 21.6868 1297.53 21.6789C1297.03 21.6566 1296.88 21.6504 1295.61 21.6504C1294.35 21.6504 1294.19 21.6504 1293.69 21.6789C1293.3 21.6869 1292.92 21.7604 1292.56 21.8963C1292.25 22.0162 1291.97 22.1994 1291.73 22.4341C1291.5 22.6689 1291.32 22.9501 1291.2 23.2597C1291.06 23.6217 1290.99 24.0044 1290.98 24.3911C1290.96 24.8897 1290.95 25.0477 1290.95 26.3121C1290.95 27.5766 1290.95 27.7382 1290.98 28.2332C1290.99 28.6205 1291.06 29.0026 1291.2 29.3656C1291.32 29.6751 1291.5 29.9562 1291.73 30.1909C1291.97 30.4255 1292.25 30.6086 1292.56 30.7284C1292.92 30.8699 1293.3 30.9487 1293.69 30.9615C1294.19 30.9837 1294.35 30.9905 1295.61 30.9905C1296.88 30.9905 1297.04 30.9905 1297.53 30.9615C1297.92 30.9538 1298.3 30.8805 1298.67 30.7445C1298.97 30.6244 1299.26 30.4412 1299.49 30.2064C1299.73 29.9717 1299.91 29.6906 1300.03 29.3811C1300.16 29.0187 1300.24 28.6365 1300.25 28.2487C1300.27 27.7506 1300.27 27.5927 1300.27 26.3277C1300.27 25.0632 1300.27 24.9027 1300.24 24.4072ZM1295.61 28.7033C1294.29 28.7033 1293.21 27.632 1293.21 26.3095C1293.21 24.9871 1294.29 23.9158 1295.61 23.9158C1296.24 23.9158 1296.85 24.168 1297.3 24.6169C1297.75 25.0658 1298 25.6747 1298 26.3095C1298 26.9444 1297.75 27.5533 1297.3 28.0022C1296.85 28.4511 1296.24 28.7033 1295.61 28.7033ZM1298.1 24.3854C1297.79 24.3854 1297.54 24.1358 1297.54 23.8272C1297.54 23.754 1297.55 23.6814 1297.58 23.6137C1297.61 23.546 1297.65 23.4845 1297.7 23.4327C1297.75 23.3809 1297.82 23.3398 1297.88 23.3118C1297.95 23.2837 1298.02 23.2693 1298.1 23.2693C1298.17 23.2693 1298.24 23.2837 1298.31 23.3118C1298.38 23.3398 1298.44 23.3809 1298.49 23.4327C1298.54 23.4845 1298.58 23.546 1298.61 23.6137C1298.64 23.6814 1298.66 23.754 1298.66 23.8272C1298.66 24.1358 1298.41 24.3854 1298.1 24.3854Z" fill="white"/>
<path d="M1295.61 27.8643C1296.47 27.8643 1297.16 27.1681 1297.16 26.3093C1297.16 25.4506 1296.47 24.7544 1295.61 24.7544C1294.75 24.7544 1294.05 25.4506 1294.05 26.3093C1294.05 27.1681 1294.75 27.8643 1295.61 27.8643Z" fill="white"/>
</svg>
